<mxfile host="app.diagrams.net" modified="2023-04-24T16:33:14.502Z" agent="Mozilla/5.0 (Windows NT 10.0; Win64; x64) AppleWebKit/537.36 (KHTML, like Gecko) Chrome/112.0.0.0 Safari/537.36 Edg/112.0.1722.58" etag="Z5Qy7on6zTCS6NmiGFko" version="21.2.1" type="github">
  <diagram id="prtHgNgQTEPvFCAcTncT" name="Page-1">
    <mxGraphModel dx="1050" dy="1718" grid="1" gridSize="10" guides="1" tooltips="1" connect="1" arrows="1" fold="1" page="1" pageScale="1" pageWidth="827" pageHeight="1169" math="0" shadow="0">
      <root>
        <mxCell id="0" />
        <mxCell id="1" parent="0" />
        <mxCell id="dNxyNK7c78bLwvsdeMH5-11" value="Docker" style="swimlane;html=1;startSize=20;horizontal=1;containerType=tree;glass=0;" parent="1" vertex="1">
          <mxGeometry x="50" y="-120" width="850" height="500" as="geometry" />
        </mxCell>
        <mxCell id="M4pzVBqe2TLe_omlaEsI-1" value="前端系统" style="swimlane;whiteSpace=wrap;html=1;" vertex="1" parent="dNxyNK7c78bLwvsdeMH5-11">
          <mxGeometry x="20" y="45" width="240" height="410" as="geometry" />
        </mxCell>
        <mxCell id="M4pzVBqe2TLe_omlaEsI-2" value="Vue" style="swimlane;whiteSpace=wrap;html=1;" vertex="1" parent="M4pzVBqe2TLe_omlaEsI-1">
          <mxGeometry y="20" width="240" height="390" as="geometry" />
        </mxCell>
        <mxCell id="M4pzVBqe2TLe_omlaEsI-5" value="" style="shape=crossbar;whiteSpace=wrap;html=1;rounded=1;" vertex="1" parent="M4pzVBqe2TLe_omlaEsI-2">
          <mxGeometry y="130" width="240" height="20" as="geometry" />
        </mxCell>
        <mxCell id="M4pzVBqe2TLe_omlaEsI-6" value="Element UI" style="rounded=1;whiteSpace=wrap;html=1;" vertex="1" parent="M4pzVBqe2TLe_omlaEsI-2">
          <mxGeometry x="20" y="40" width="170" height="40" as="geometry" />
        </mxCell>
        <mxCell id="M4pzVBqe2TLe_omlaEsI-7" value="iView" style="rounded=1;whiteSpace=wrap;html=1;" vertex="1" parent="M4pzVBqe2TLe_omlaEsI-2">
          <mxGeometry x="20" y="90" width="170" height="40" as="geometry" />
        </mxCell>
        <mxCell id="M4pzVBqe2TLe_omlaEsI-8" value="Vuex" style="rounded=0;whiteSpace=wrap;html=1;" vertex="1" parent="M4pzVBqe2TLe_omlaEsI-2">
          <mxGeometry x="10" y="190" width="120" height="60" as="geometry" />
        </mxCell>
        <mxCell id="M4pzVBqe2TLe_omlaEsI-9" value="Router" style="rounded=0;whiteSpace=wrap;html=1;" vertex="1" parent="M4pzVBqe2TLe_omlaEsI-2">
          <mxGeometry x="10" y="290" width="120" height="60" as="geometry" />
        </mxCell>
        <mxCell id="M4pzVBqe2TLe_omlaEsI-11" value="Axios" style="rounded=0;whiteSpace=wrap;html=1;" vertex="1" parent="M4pzVBqe2TLe_omlaEsI-2">
          <mxGeometry x="160" y="190" width="60" height="160" as="geometry" />
        </mxCell>
        <mxCell id="M4pzVBqe2TLe_omlaEsI-13" value="后端系统" style="swimlane;whiteSpace=wrap;html=1;" vertex="1" parent="dNxyNK7c78bLwvsdeMH5-11">
          <mxGeometry x="310" y="45" width="230" height="410" as="geometry" />
        </mxCell>
        <mxCell id="M4pzVBqe2TLe_omlaEsI-17" value="Spring Boot" style="swimlane;whiteSpace=wrap;html=1;" vertex="1" parent="M4pzVBqe2TLe_omlaEsI-13">
          <mxGeometry y="20" width="230" height="390" as="geometry" />
        </mxCell>
        <mxCell id="M4pzVBqe2TLe_omlaEsI-15" value="" style="shape=singleArrow;whiteSpace=wrap;html=1;" vertex="1" parent="dNxyNK7c78bLwvsdeMH5-11">
          <mxGeometry x="240" y="260" width="70" height="60" as="geometry" />
        </mxCell>
        <mxCell id="M4pzVBqe2TLe_omlaEsI-16" value="" style="shape=singleArrow;direction=west;whiteSpace=wrap;html=1;" vertex="1" parent="dNxyNK7c78bLwvsdeMH5-11">
          <mxGeometry x="240" y="340" width="70" height="60" as="geometry" />
        </mxCell>
      </root>
    </mxGraphModel>
  </diagram>
</mxfile>
